<?xml version="1.0"?><svg width="1065.367" height="822.959" xmlns="http://www.w3.org/2000/svg">
 <title>mouth</title>

 <g>
  <title>Layer 1</title>
  <g externalResourcesRequired="false" id="switch2323">
   <g externalResourcesRequired="false" id="g2327" transform="matrix(1.61968 0 0 1.61968 -61.9678 -529.206)">
    <g id="g2331">
     <path id="path2333" d="m389.201569,373.270996c-11.75,0 -86.936035,0.01001 -96.342041,4.703003c-9.405945,4.692993 -34.076965,35.239014 -34.076965,35.239014c0,0 37.607971,83.429993 27.029968,139.823975c-10.578003,56.398987 -124.553986,132.768005 -132.776978,176.23999c-8.218994,43.473999 51.505981,75.728027 51.505981,75.728027c0,0 54.241028,13.562012 135.312012,13.562012c314.888031,11.75 343.94101,-103.970032 359.376923,-148.915039c15.437073,-44.949951 16.608093,-56.708984 3.687073,-142.473999c-12.922058,-85.758972 -91.64801,-163.312988 -136.29895,-163.312988c-44.64502,0.001007 -165.667023,9.406006 -177.417023,9.406006z"/>
    </g>
    <g id="g2335">
     <path fill="#40261c" id="path2337" d="m206.905548,657.278015c0,0 74.203979,-61.022034 80.078979,-110.369995c5.875,-49.348022 -2.343994,-64.629028 -2.343994,-64.629028l123.361023,-39.940979l185.642059,1.171997l76.367981,12.92099l12.921936,8.234009c0,0 22.316956,48.175995 24.671021,99.866974c2.359009,51.697021 -8.374084,103.689026 -8.374084,103.689026l-288.873932,47.875l-203.450989,-58.817993z"/>
    </g>
    <g id="g2339">
     <polygon fill="#ffffff" id="polygon2341" points="223.54257202148438,653.822021484375 232.93356323242188,651.47802734375 243.51156616210938,642.072021484375 254.08956909179688,642.072021484375 268.1875305175781,623.2760009765625 282.2815856933594,627.97900390625 291.6875305175781,620.926025390625 310.4885559082031,620.926025390625 319.8795471191406,611.5260009765625 336.3325500488281,611.5260009765625 346.9105529785156,610.3489990234375 356.3055725097656,611.5260009765625 366.8835754394531,624.447998046875 348.0825500488281,678.4990234375 335.1605529785156,676.155029296875 316.3595275878906,685.5449829101563 263.1495666503906,705.8889770507813 238.80856323242188,676.155029296875 212.96554565429688,662.0449829101563 223.54257202148438,653.822021484375 "/>
    </g>
    <g id="g2343">
     <path fill="#c3756e" id="path2345" d="m351.738556,709.997009c0,0 1.90802,-127.259033 100.559021,-166.330017c98.654999,-39.070007 140.595978,-0.01001 154.413971,4.288025c13.817993,4.302002 34.792969,2.849976 57.190063,8.578979c16.787964,4.302979 24.861938,16.487 24.861938,16.487l16.888,77.695007l-12.866028,30.852966"/>
    </g>
    <g id="g2347">
     <path fill="#8c5e5d" id="path2349" d="m684.456604,670.609985l10.486938,-6.675964c0,0 13.332947,34.32196 -44.804993,83.884949c-58.137939,49.559021 -161.391022,67.229004 -303.103973,64.810059c-25.738037,-0.952026 -90.546997,11.44397 -146.781006,-13.338013c-56.244019,-24.786011 -48.611023,-75.312012 -48.611023,-75.312012l30.591003,-34.020996l162.733032,-22.799011l19.973999,34.072021l144.131958,24.661987l175.384064,-55.28302z"/>
    </g>
    <g id="g2351">
     <polygon fill="#c1c9d4" id="polygon2353" points="248.85556030273438,677.2260131835938 275.8405456542969,666.1430053710938 285.3065490722656,652.25 312.4725646972656,651.6240234375 323.2005310058594,642.2520141601563 343.2135314941406,649.7449951171875 363.9495544433594,642.8779907226563 351.7275695800781,679.8660278320313 335.3505554199219,679.4149780273438 313.1935729980469,689.1010131835938 294.7825622558594,685.6610107421875 263.8605651855469,701.5859985351563 248.85556030273438,677.2260131835938 "/>
    </g>
    <g id="g2355">
     <path fill="#a6655f" id="path2357" d="m362.515533,670.844971c-0.880981,-45.761963 39.31604,-91.502991 16.443054,-64.337952c-22.873047,27.165955 -28.594055,101.515991 -28.594055,101.515991l31.453003,-2.148987c0.001038,0 -18.419983,10.737976 -19.302002,-35.029053z"/>
    </g>
    <g id="g2359">
     <path fill="#a6655f" id="path2361" d="m421.485565,562.098022c0,0 48.606018,-30.025024 110.084015,-26.684998c61.483032,3.339966 59.911987,32.520996 59.911987,32.520996c0,0 12.144043,-8.194031 31.444946,-11.054016c19.303101,-2.859985 17.1521,-3.239014 17.1521,-3.239014l-34.113037,-3.620972c0,0 -26.265991,-20.807007 -77.731079,-22.234009c-51.476959,-1.432983 -106.748932,34.312012 -106.748932,34.312012z"/>
    </g>
    <g id="g2363">
     <path fill="#e7c8c7" id="path2365" d="m608.82959,598.669006c-1.651978,-3.296021 -12.94104,0 -21.405029,7.992981c-8.483948,8.014038 -7.307983,14.835022 -4.482971,18.846985c2.829956,3.997009 11.294006,3.059998 15.541992,-0.951965c4.22699,-3.996033 0.945984,-9.880981 1.651917,-13.177002c0.70105,-3.294983 8.229004,-9.414978 8.229004,-9.414978c0,0 2.123047,0 0.465088,-3.296021z"/>
    </g>
    <g id="g2367">
     <path fill="#e7c8c7" id="path2369" d="m631.4776,580.02301c-5.028076,4.828003 -0.807007,10.458008 4.822937,11.05896c5.629028,0.606018 8.238037,-2.008972 15.690063,-1.807983c7.441956,0.200012 9.034912,3.820984 12.656006,3.621033c3.631958,-0.205994 5.44397,0.600952 6.846924,-3.421021c1.412048,-4.021973 -1.202026,-8.244019 -9.444946,-7.638c-8.254028,0.601013 -12.671997,1.606995 -17.294067,0.601013c-4.622925,-1.007019 -8.244019,-7.247009 -13.276917,-2.414001z"/>
    </g>
    <g id="g2371">
     <path id="path2373" d="m263.485565,410.614014l19.968018,76.367981l15.28595,7.046997l24.671021,-15.270996l25.843994,8.223999l43.473022,-16.441986l25.854004,9.390991l58.737976,-4.697998l23.5,-8.223999l21.15506,3.531006l33.927002,17.169006l47.148987,-20.700012l32.89502,1.171997l25.843933,4.703003l12.921997,-7.046997l12.927002,0c0,0 -55.228027,-96.35202 -138.637939,-104.570007c-83.420074,-8.223999 -159.798065,10.578003 -159.798065,10.578003c0,0 -81.070984,-4.703003 -99.867981,8.218994c-18.802002,12.920013 -25.848999,30.550018 -25.848999,30.550018z"/>
    </g>
    <g id="g2375">
     <path fill="#ffffff" id="path2377" d="m261.71756,412.778015l23.588989,67.913971l15.015015,6.436005l22.877991,-13.582977l10.007019,-2.144012l17.157959,10.006989l4.287048,-2.143982l20.72998,-2.860016l14.299011,-9.294983l30.742004,7.862976l25.731995,-10.006989l41.409973,3.315002l32.934967,-2.600006l35.399048,16.662994l54.597046,-24.340973l1.276978,-15.166016l2.523987,18.96701l31.606995,9.480988l36.156067,-9.181c0,0 -60.763062,-85.066986 -124.389038,-93.645996c-63.62204,-8.579987 -152.266022,5.002991 -152.266022,5.002991l-112.238037,15.011017l-31.448975,24.307007z"/>
    </g>
    <g id="g2379">
     <polyline fill="#ffffff" id="polyline2381" points="260.9055480957031,410.31298828124994 296.1545715332031,384.72000122070307 416.6975402832031,375.61499023437494 567.3705749511719,368.80398559570307 "/>
    </g>
    <path fill="#82524b" id="path2383" d="m692.526489,573.200989c-0.636963,-2.045959 -5.51886,-15.039978 -28.18396,-20.838989c-12.007019,-3.072021 -23.565979,-4.122009 -33.765991,-5.047974c-9.138,-0.830017 -17.028931,-1.546021 -23.251953,-3.483032c-1.81897,-0.565979 -4.51001,-1.997986 -7.916077,-3.810974c-19.122009,-10.179993 -63.904968,-34.02002 -148.82193,-0.388c-41.312012,16.360962 -72.188049,50.911011 -89.29303,99.916992c-12.847961,36.809998 -13.460999,68.291016 -13.481018,69.612976l7,0.105042l0,0.000977c0.02002,-1.25 3.062012,-125.390015 98.353027,-163.129028c81.907013,-32.438965 123.139984,-10.488953 142.955048,0.059021c3.72998,1.986023 6.677979,3.554993 9.124939,4.315979c3.769958,1.174011 7.938049,1.924011 12.479004,2.51001c-29.819946,8.559021 -47.563049,30.507019 -47.801941,30.807983c0,0 31.473999,-29.260986 73.695984,-28.138c6.134949,0.76001 12.52594,1.796021 18.98999,3.449036c19.815063,5.070007 23.100891,15.672974 23.22998,16.122009l0.049988,0.170959c0.013,0.048035 0.079041,0.212036 0.079041,0.212036c3.557922,8.813965 11.119995,51.53302 14.621887,72.890991l6.908081,-1.132996c-0.415955,-2.541016 -10.213013,-62.090027 -14.971069,-74.205017z"/>
    <g id="g2385">
     <path id="path2387" d="m191.193573,765.453979c-5.720032,-2.859009 -25.738037,-44.799988 -25.738037,-44.799988l23.830017,-63.856018l15.255005,-3.811951l13.338013,4.758972l18.11499,0.961975l8.578979,7.617004l20.019043,32.414001c0,0 21.916992,-13.356995 29.539978,-15.255981c7.632996,-1.896973 55.28302,14.294983 55.28302,14.294983l35.273987,-12.386963l20.018982,-2.859009l41.929993,14.299011l49.572998,-23.824036l25.733063,0l20.964966,9.525024l40.032043,-16.207031l16.207886,-5.719971l20.019043,20.018982l7.612,-6.670959l17.159058,-0.946045l23.839966,-1.914001l5.719971,-7.626953l12.380981,-0.947021l5.719055,13.348022c0,0 -3.473083,14.45697 -10.876038,29.639954c-9.182007,18.830994 -22.802917,39.301025 -24.382935,40.884033c-2.859009,2.859009 -8.579102,-0.947021 -8.579102,-0.947021c0,0 -6.67688,-12.390991 -9.540894,-11.437988c-2.855103,0.950989 -36.21106,36.226013 -36.21106,36.226013l-21.926941,5.714966l-22.877991,-12.395996l-12.381104,-15.25l-43.853973,30.501038c0,0 -20.018982,8.578979 -26.685974,5.719971c-6.671021,-2.859985 -13.35199,-7.627991 -13.35199,-7.627991l-8.575012,-19.065979l-53.369019,38.133972c0,0 -5.729004,3.820984 -12.399963,2.859009c-6.671021,-0.962036 -17.158997,-12.400024 -17.158997,-12.400024l-20.014038,-24.770996l-5.719971,-18.119995l-18.104004,14.299011l-31.52301,25.257019c0,0 -22.09198,8.398987 -28.77301,5.539001c-6.680969,-2.859009 -19.65802,-20.019043 -19.65802,-20.019043l-8.689941,-23.164001l-28.598022,14.295044c0,-0.001038 -11.439026,8.578003 -17.153992,5.717957z"/>
    </g>
    <g id="g2389">
     <path fill="#8c5e5d" id="path2391" d="m310.80954,383.502991l13.337036,26.059021c0,0 5.003967,-18.786011 17.63501,-24.531006c12.636963,-5.748993 22.868958,-6.501007 29.549988,-3.045013c6.680969,3.44101 7.627991,19.903015 7.627991,19.903015l0.856018,-2.994995c0,0 2.953979,-11.559021 6.770996,-15.391022c3.820984,-3.820984 7.151001,-3.450989 20.013,-4.592987c12.872009,-1.145996 26.203979,7.662994 26.203979,7.662994c0,0 1.913025,-7.64801 6.682007,-9.190002c4.768005,-1.542999 51.226013,-8.804993 55.763977,-6.891998c4.532043,1.89801 18.105072,20.684998 18.105072,20.684998c0,0 -0.481018,-7.272003 1.427002,-11.493988c1.912964,-4.222015 17.639893,-10.743011 17.639893,-10.743011l49.083008,4.602997c0,0 19.052002,16.082001 23.34906,23.755005c4.307922,7.662994 3.81604,28.352997 3.81604,28.352997l13.842957,-28.979004l18.091003,15.626007l0,-4.287994l-58.617981,-42.891998l-118.190033,1.53299l-98.174988,11.334015l-54.811035,5.518982z"/>
     <path id="path2393" d="m310.720551,383.549011l13.337036,26.05899l0.117981,0.231995l0.067017,-0.251007c0.049988,-0.187988 5.136963,-18.806976 17.578979,-24.466003c6.175964,-2.80899 11.887024,-4.47998 16.97699,-4.965973c4.916992,-0.469025 9.117981,0.175995 12.486023,1.918976c6.553955,3.375 7.563965,19.656006 7.573975,19.820007l0.195007,0.020996l0.856018,-2.994995c0.029968,-0.118011 2.992004,-11.57901 6.747009,-15.346985c3.208984,-3.209015 6.097961,-3.440002 14.670959,-4.125c1.551025,-0.124023 3.307983,-0.264008 5.278992,-0.439026c12.688049,-1.129974 26.007019,7.559021 26.140991,7.647003l0.117004,0.078003l0.033997,-0.136993c0.02002,-0.075989 1.955017,-7.612 6.616028,-9.119995c4.057007,-1.313019 51.112976,-8.825989 55.692993,-6.894989c4.455017,1.865997 17.927948,20.462982 18.062958,20.65097l0.204102,0.282013l-0.023071,-0.347992c-0.005005,-0.072021 -0.457947,-7.296021 1.417969,-11.446014c1.875,-4.138 17.43103,-10.626984 17.587097,-10.691986l-0.048096,0.006989l49.083008,4.602997l-0.054932,-0.02298c0.190002,0.16098 19.086975,16.15799 23.325989,23.727997c4.244995,7.552002 3.80896,28.095001 3.803955,28.300995l0.189087,0.044983l13.842957,-28.978973l-0.155029,0.03299l18.091003,15.626007l0.165039,0.143005l0,-0.218018l0,-4.287994l0,-0.050995l-0.041016,-0.029999l-58.617981,-42.891998l-0.026062,-0.02002l-0.032959,0l-118.188019,1.532013l-0.005981,0l-0.005005,0.001007l-98.174988,11.333984c0.001953,0 -54.809998,5.519012 -54.809998,5.519012l-0.145996,0.014984l0.06897,0.132019zm54.911987,-5.466003l98.175049,-11.334015l-0.011047,0l118.187958,-1.531982l-0.060913,-0.02002l58.619019,42.891998l-0.041016,-0.080994l0,4.287994l0.164917,-0.075989l-18.090942,-15.626007l-0.099976,-0.084991l-0.05603,0.118011l-13.843018,28.978973l0.188965,0.045013c0.002075,-0.052002 0.118103,-5.247009 -0.292969,-11.312012c-0.380005,-5.604004 -1.301941,-13.117004 -3.53595,-17.09198c-4.256042,-7.601013 -23.180969,-23.622009 -23.371033,-23.782013l-0.024048,-0.020996l-0.029907,-0.002991l-49.083069,-4.602997l-0.024963,-0.002014l-0.021973,0.01001c-0.643982,0.266998 -15.784973,6.583984 -17.692017,10.794006c-1.896057,4.195984 -1.440063,11.468994 -1.436035,11.541992l0.18103,-0.065002c-0.555054,-0.768005 -13.641998,-18.830994 -18.147003,-20.718018c-2.760986,-1.164001 -20.39502,1.111023 -27.848999,2.143005c-12.402039,1.71701 -25.479004,3.934998 -27.984985,4.746002c-2.494995,0.808014 -4.197998,3.286011 -5.187012,5.222992c-1.067017,2.091003 -1.55603,4.019012 -1.561035,4.038025l0.151001,-0.059021c-0.032959,-0.022003 -3.396973,-2.230988 -8.290955,-4.269989c-4.52002,-1.882996 -11.307007,-4.002991 -17.977051,-3.408997c-1.970947,0.174988 -3.727966,0.315002 -5.276978,0.438995c-8.628967,0.688995 -11.534973,0.92099 -14.796997,4.183014c-3.792969,3.806976 -6.768982,15.320984 -6.797974,15.436981c0.000977,-0.001984 -0.855042,2.993011 -0.855042,2.993011l0.195007,0.020996c-0.002014,-0.041016 -0.248962,-4.175995 -1.310974,-8.678009c-0.983032,-4.167999 -2.887024,-9.513 -6.371033,-11.307983c-3.402954,-1.76001 -7.640991,-2.413025 -12.596985,-1.940002c-5.112,0.488007 -10.844971,2.164001 -17.039978,4.983002c-2.89502,1.315979 -5.626038,3.429993 -8.118042,6.281982c-1.992004,2.279022 -3.836975,5.032013 -5.482971,8.183014c-2.802979,5.363007 -4.075989,10.084991 -4.088989,10.131989l0.185974,-0.019989l-13.336975,-26.05899l-0.079041,0.144989c0.002014,-0.001007 54.813049,-5.520996 54.815002,-5.520996z"/>
    </g>
    <g id="g2395">
     <path id="path2397" d="m389.201569,366.843994c-58.455017,0 -91.619995,1.759003 -98.574036,5.229004c-10.086975,5.028015 -33.139954,33.358002 -35.734985,36.571014l-1.932007,2.392975l1.264038,2.804016c0.368958,0.820007 36.835999,82.665009 26.67395,136.848022c-5.35498,28.550964 -40.748962,64.685974 -71.97699,96.565979c-29.145996,29.755981 -56.675995,57.861023 -60.799988,79.661987c-8.796997,46.528992 51.473022,79.671997 54.04303,81.061035l0.552979,0.29895l0.609985,0.152039c0.548035,0.138 55.772034,13.70697 136.525024,13.70697l-0.187012,-0.003967c132.252991,4.937988 229.951996,-12.22699 290.384003,-51.015015c50.786011,-32.596985 64.365967,-72.947021 72.47998,-97.05603l1.42804,-4.216003c15.634949,-45.520996 17.018066,-57.794983 3.901917,-144.837952c-5.993958,-39.781006 -26.938904,-82.208008 -57.465942,-116.403015c-28.175049,-31.561005 -60.276001,-51.166016 -83.776978,-51.166016c-29.669983,0 -93.26004,4.156006 -135.33902,6.906006c-21.372986,1.397003 -38.255005,2.5 -42.075989,2.5zm177.417023,0.593994c40.45697,0 118.589905,74.341003 131.354004,159.059021c12.855957,85.325012 11.684937,95.972961 -3.471008,140.099976l-1.448059,4.273987c-15.360962,45.643005 -51.335999,152.529053 -353.013947,141.268005l-0.093018,-0.003967l-0.093994,0c-79.432007,0 -133.562988,-13.273987 -134.101013,-13.40802l1.164978,0.450989c-0.561951,-0.304993 -56.40799,-31.057007 -48.968964,-70.402954c3.560974,-18.825012 30.061981,-45.880005 58.118011,-74.52301c33.796997,-34.505005 68.745972,-70.184998 74.66095,-101.720032c10.744019,-57.284973 -25.823975,-139.335968 -27.385986,-142.800995l-0.667969,5.196014c9.276001,-11.485016 26.278992,-30.846008 32.416992,-33.904999c3.885986,-1.928009 30.862976,-4.178009 94.110962,-4.178009c4.147034,0 20.331055,-1.057983 42.729004,-2.520996c41.950012,-2.742004 105.345001,-6.88501 134.689056,-6.88501z"/>
    </g>
    <g id="g2399">
     <path fill="#ffffff" id="path2401" d="m192.611542,660.137024l-23.109009,57.656982l7.863037,10.487l8.343994,23.107971l8.333984,10.723999l34.557983,-14.528992l8.815002,-6.916992c0,0 -1.021973,-2.197998 0.531006,-6.020996c1.55304,-3.815979 11.384033,-18.284973 11.384033,-18.284973c0,0 -7.989014,12.927002 -8.700012,17.75c-0.716003,4.828003 -1.788025,14.479004 13.937988,40.393005c22.34198,35.203979 72.557007,-22.879028 72.557007,-22.879028l17.039001,-10.958008l11.919983,22.877991l27.165039,27.645996l22.393005,-4.291992l37.171997,-27.164978l5.719971,-25.733032l-1.89801,-10.957947l4.759033,16.195984l2.388977,12.867004l6.666016,3.341003l2.383972,8.097961l2.855042,10.007019l12.870972,4.768982l63.387054,-32.398987l5.237915,-4.291992l14.299072,17.15802l13.827942,8.579956l22.878967,-0.961975l31.924072,-34.312012l-2.865051,-21.445984l13.353088,16.687988l10.006958,11.434998l33.831909,-54.807007l4.292053,-11.438965l-5.720032,-6.200012l-13.817993,5.719971l-40.031982,4.768005l-8.098999,6.671021l1.898071,16.208008l-22.578003,-31.879028c0,0 -47.424011,13.828003 -51.76709,19.958984c-4.346924,6.130005 5.249084,33.366028 5.249084,33.366028l-14.063049,-32.059998l-23.590027,-10.833008l-20.018951,0.947021l-40.983032,20.979004l-0.961975,8.098999l-10.953003,-8.579041l-40.031982,-12.391968l-37.653015,9.050964l-13.338013,9.061035l-1.907959,14.294006l-4.772034,-16.208008l-12.385986,-7.145996l-38.124023,-7.618042c0,0 -13.33197,5.475037 -18.585999,8.098999c-5.248962,2.625 -10.722961,5.730042 -13.347961,9.061035c-2.624023,3.325012 -1.432007,4.286987 -1.432007,4.286987l-15.957031,-30.740967l-15.726013,-16.688049l-13.352966,1.433044l-9.776001,-6.901001l-14.296021,2.854004z"/>
    </g>
    <g id="g2403">
     <path fill="#c1c9d4" id="path2405" d="m635.238525,720.353027l15.370972,18.586975l33.832031,-54.978027l4.292053,-11.438965l-5.720032,-6.200012c0,0 -15.425964,10.958984 -26.684998,23.825012c-11.258972,12.865967 -21.090027,30.205017 -21.090027,30.205017z"/>
    </g>
    <g id="g2407">
     <path fill="#c1c9d4" id="path2409" d="m611.643616,751.987l18.471985,-19.893982l-2.73999,-20.855042l-5.003113,-12.510986l-14.474915,-20.554993c0,0 -8.584045,22.879028 -6.616028,39.140991c1.967957,16.263 10.362061,34.674011 10.362061,34.674011z"/>
    </g>
    <g id="g2411">
     <path fill="#c1c9d4" id="path2413" d="m545.162598,701.406982c0,0 -2.499023,-7.68396 -5.358032,-6.96698c-6.43103,1.606995 -10.006958,51.46698 -10.006958,51.46698l1.427979,5.544006l11.083008,-5.544006l4.822998,-4.106995l1.246948,-15.906006l-3.215942,-24.487z"/>
    </g>
    <g id="g2415">
     <path fill="#c1c9d4" id="path2417" d="m435.608551,764.853027c0,0 5.098999,-60.096008 10.588013,-59.444031c5.499023,0.645996 2.338989,28.411987 2.338989,28.411987l-5.719971,25.738037l-7.207031,5.294006z"/>
    </g>
    <g id="g2419">
     <polygon id="polygon2421" points="446.8675842285156,723.9240112304688 448.5355529785156,734.0009765625 442.8155822753906,759.7349853515625 428.6425476074219,770.2119750976563 429.5395812988281,771.4639892578125 454.9115295410156,755.02197265625 457.7755432128906,756.2739868164063 459.0235290527344,755.02197265625 453.4835510253906,752.52197265625 451.3955383300781,739.239990234375 446.8675842285156,723.9240112304688 "/>
    </g>
    <g id="g2423">
     <path fill="#c1c9d4" id="path2425" d="m337.974579,744.723999l6.190979,-4.057007l6.198975,-20.964966l-1.911987,-6.912048c0,0 -0.471008,-2.858948 -2.61499,-1.896973c-2.143005,0.955994 -7.862976,33.830994 -7.862976,33.830994z"/>
    </g>
    <g id="g2427">
     <path fill="#c1c9d4" id="path2429" d="m227.900543,748.129028l8.809998,-6.911011l23.679993,-31.532043c0,0 -6.966003,1.953003 -18.094971,11.549011c-11.125,9.596008 -14.39502,26.894043 -14.39502,26.894043z"/>
    </g>
    <g id="g2431">
     <path id="path2433" d="m221.509552,750.734985l0.179993,1.071045l15.186035,-7.147034l1.967957,1.963989l2.324036,-0.716003c0,0 -0.895996,-2.31897 -0.895996,-9.471985c0,-7.145996 8.042969,-18.404968 8.042969,-18.404968c0,0 -10.722961,16.797974 -11.078003,18.940979c-0.360962,2.143982 0.179993,3.695984 0.179993,3.695984l-8.815002,6.916992l-7.09198,3.151001z"/>
    </g>
    <g externalResourcesRequired="false" id="g2437"/>
   </g>
  </g>
 </g>
</svg>